<?xml version="1.0" encoding="UTF-8"?>
<svg version="1.1" xmlns="http://www.w3.org/2000/svg" width="1078" height="1078">
<path d="M0 0 C3 1 3 1 4.02734375 2.8984375 C4.47787109 4.12433594 4.47787109 4.12433594 4.9375 5.375 C5.27523438 6.27863281 5.61296875 7.18226562 5.9609375 8.11328125 C6.47527344 9.54220703 6.47527344 9.54220703 7 11 C7.51433594 12.38251953 7.51433594 12.38251953 8.0390625 13.79296875 C10.14468488 19.49100794 12.09975747 25.23094618 14 31 C17.87554196 42.57824525 22.08406892 53.96236372 26.80322266 65.2253418 C28.66514376 69.67792601 30.42972905 74.1356386 32.046875 78.68359375 C33.63664797 83.10881946 35.42196875 87.31608034 37.5625 91.5 C37.89620605 92.15871094 38.22991211 92.81742187 38.57373047 93.49609375 C41.44472628 99.07952427 44.50262781 104.55384083 47.625 110 C48.06787354 110.77666016 48.51074707 111.55332031 48.96704102 112.35351562 C51.60407246 116.88443725 54.47544964 121.07782063 57.67358398 125.23022461 C59.29291902 127.39082827 60.62469684 129.67801119 62 132 C63.64307999 134.34547652 65.35307161 136.64010963 67.0625 138.9375 C71.32070772 144.69654557 75.52005062 150.49219134 79.65063477 156.34350586 C81.9982864 159.65437278 84.44758366 162.84527264 87 166 C89.9483589 169.79978268 92.87590937 173.61520082 95.79882812 177.43457031 C96.85562067 178.81183734 97.91944881 180.18369984 98.984375 181.5546875 C99.52578125 182.25851562 100.0671875 182.96234375 100.625 183.6875 C101.09164063 184.28949219 101.55828125 184.89148438 102.0390625 185.51171875 C103 187 103 187 103 189 C103.66 189 104.32 189 105 189 C106.296875 190.6875 106.296875 190.6875 107.75 193 C110.28619677 196.95421811 112.99208425 200.68226078 115.8984375 204.37109375 C117 206 117 206 117 208 C117.99 208.33 118.98 208.66 120 209 C121.796875 211.1875 121.796875 211.1875 123.75 214 C128.61946015 220.88655404 133.78131817 227.48858107 139.0625 234.0625 C141.3429559 236.90329649 143.58674683 239.75664087 145.75 242.6875 C148.65288648 246.60008612 151.69783395 250.39127594 154.75 254.1875 C159.49160191 260.08673824 164.14751548 266.04354147 168.74609375 272.0546875 C172.41515817 276.84927081 176.10340139 281.62925174 179.875 286.34375 C187.706081 296.13260125 195.39261783 306.03660022 203 316 C203.5878125 316.73992187 204.175625 317.47984375 204.78125 318.2421875 C206 320 206 320 206 322 C206.99 322.33 207.98 322.66 209 323 C210.4296875 324.85546875 210.4296875 324.85546875 211.875 327.1875 C213.72752476 330.10059519 215.58467459 332.7918773 217.875 335.375 C220 338 220 338 220 341 C220.66 341 221.32 341 222 341 C223.35693359 342.57299805 223.35693359 342.57299805 224.8984375 344.76171875 C225.46046875 345.55126953 226.0225 346.34082031 226.6015625 347.15429688 C227.47941406 348.40823242 227.47941406 348.40823242 228.375 349.6875 C229.52750478 351.31721379 230.68112281 352.94614096 231.8359375 354.57421875 C232.3834668 355.34813965 232.93099609 356.12206055 233.49511719 356.91943359 C234.69057717 358.57220938 235.94848373 360.17978063 237.2265625 361.76953125 C239.06221666 364.07825047 240.51118087 366.45693597 242 369 C243.0264638 370.51044414 244.06884858 372.01016322 245.125 373.5 C245.73214844 374.36238281 246.33929687 375.22476562 246.96484375 376.11328125 C247.97224609 377.54220703 247.97224609 377.54220703 249 379 C250.56748829 381.22571223 252.12906368 383.45544201 253.6875 385.6875 C254.41324219 386.72261719 255.13898437 387.75773437 255.88671875 388.82421875 C258.0932697 392.14016315 260.06293859 395.52361007 262 399 C262.61359375 400.07378906 263.2271875 401.14757812 263.859375 402.25390625 C264.8367488 403.9643104 265.81410803 405.67472288 266.79125977 407.38525391 C268.51936195 410.41012144 270.24875982 413.43422572 271.98046875 416.45703125 C273.30276976 418.76643921 274.62184075 421.07745161 275.9375 423.390625 C277.33690923 425.84897416 278.75636894 428.29437239 280.1875 430.734375 C289.12708435 446.10781016 295.98606306 462.29050751 302 479 C302.36738281 479.94746094 302.73476563 480.89492188 303.11328125 481.87109375 C305.86520308 489.02184045 307.69685051 496.32508143 309.45263672 503.76611328 C310.00284005 506.01159075 310.60646947 508.23664683 311.22265625 510.46484375 C325.12509921 562.10553748 322.63457902 620.89785376 308 672 C307.4981516 673.82406853 306.99681788 675.64827877 306.49609375 677.47265625 C302.2090832 692.72457667 296.55857806 707.54381791 289.234375 721.6015625 C288.20126607 723.60893239 287.28805005 725.59892711 286.4375 727.6875 C284.94383839 731.12941588 283.21641501 734.32010812 281.36328125 737.578125 C280.46184741 739.17952609 279.58365564 740.79425694 278.73046875 742.421875 C275.56852217 748.43595207 272.05750383 754.17022744 268.375 759.875 C267.90755371 760.60074219 267.44010742 761.32648437 266.95849609 762.07421875 C264.47531221 765.88335745 261.87442541 769.47056172 259 773 C258.46375 773.928125 257.9275 774.85625 257.375 775.8125 C256.92125 776.534375 256.4675 777.25625 256 778 C255.34 778 254.68 778 254 778 C253.731875 778.57621094 253.46375 779.15242187 253.1875 779.74609375 C249.25965911 787.20123913 242.92098441 793.40024504 237.234375 799.51953125 C235.0055412 801.90285822 235.0055412 801.90285822 233.328125 804.32421875 C232.88984375 804.87722656 232.4515625 805.43023438 232 806 C231.34 806 230.68 806 230 806 C229.62294922 806.88365234 229.62294922 806.88365234 229.23828125 807.78515625 C227.84544599 810.27644202 226.3791428 811.62300414 224.1875 813.4375 C220.94586546 816.13990713 217.97306805 819.00416727 215 822 C201.28228483 835.08019315 186.0643105 845.9786229 170 856 C168.94425781 856.66257812 167.88851563 857.32515625 166.80078125 858.0078125 C157.52161271 863.78395765 148.18438486 869.17241066 138.1796875 873.59375 C135.77742851 874.65617412 133.39104817 875.7401717 131.0078125 876.84375 C115.59931739 883.92244268 99.9175527 889.6525366 83.375 893.44482422 C80.54567128 894.10620308 77.7264152 894.80449489 74.90625 895.50390625 C72.70839771 896.04453263 70.51048091 896.58489681 68.3125 897.125 C67.2913208 897.37902588 66.2701416 897.63305176 65.21801758 897.89477539 C50.88878888 901.37100189 36.7473834 902.59718031 22.0625 903.25 C20.59342194 903.31637665 20.59342194 903.31637665 19.09466553 903.38409424 C-14.59018456 904.83815091 -47.09975747 902.81562487 -79.65380859 893.63305664 C-82.31562561 892.91483692 -84.99344494 892.28561999 -87.67578125 891.6484375 C-94.60899203 889.92623781 -101.28235619 887.60394502 -108 885.1875 C-109.18078125 884.77435547 -110.3615625 884.36121094 -111.578125 883.93554688 C-118.46689293 881.47364688 -124.98408485 878.67455807 -131.46435547 875.27661133 C-133.66456403 874.16888067 -135.79388382 873.28156597 -138.125 872.5 C-142.19299124 871.07367112 -145.68138184 868.89777333 -149.3125 866.59765625 C-151.42368562 865.3426055 -153.48402907 864.2665723 -155.69140625 863.20703125 C-160.69708532 860.73940165 -165.28769494 857.69890007 -169.9375 854.625 C-170.77990234 854.07328125 -171.62230469 853.5215625 -172.49023438 852.953125 C-174.16670365 851.853547 -175.84043055 850.74977513 -177.51123047 849.64160156 C-179.21001628 848.52107618 -180.91785831 847.41419093 -182.63330078 846.31933594 C-183.86862549 845.52317871 -183.86862549 845.52317871 -185.12890625 844.7109375 C-186.24567749 844.0001001 -186.24567749 844.0001001 -187.38500977 843.27490234 C-187.91795654 842.85418457 -188.45090332 842.4334668 -189 842 C-189 841.34 -189 840.68 -189 840 C-189.59167969 839.71769531 -190.18335938 839.43539062 -190.79296875 839.14453125 C-211.55994907 828.37510606 -231.00930088 806.22587943 -245 788 C-246.53800083 786.14279145 -248.07976635 784.28869505 -249.625 782.4375 C-259.89326306 769.8500258 -269.11542469 755.8673034 -276.66796875 741.48046875 C-278.06335634 738.88201972 -279.57617858 736.38462875 -281.125 733.875 C-283.36982311 730.17046031 -285.24733855 726.46680427 -286.93359375 722.48046875 C-288.23616493 719.45067865 -289.65311302 716.48152873 -291.0625 713.5 C-293.01894062 709.26998998 -294.75755772 705.12199265 -296.1159668 700.66772461 C-297.00097079 697.99707047 -298.00475173 695.38704167 -299.03018188 692.76768494 C-302.5744975 683.64155055 -305.27780485 674.43525381 -307.625 664.9375 C-307.81698975 664.1704071 -308.00897949 663.40331421 -308.20678711 662.61297607 C-314.43556743 637.52009278 -317.2054609 611.85226318 -317.1875 586 C-317.18722809 585.32846893 -317.18695618 584.65693787 -317.18667603 583.96505737 C-317.16603928 572.78373624 -316.61394622 561.75077686 -315.29882812 550.64257812 C-314.99395533 547.94654614 -314.75124253 545.24977205 -314.515625 542.546875 C-312.1474824 517.79018426 -305.44200459 492.94233635 -295.83740234 470.02929688 C-294.65986345 467.17573908 -293.61935889 464.27504965 -292.5625 461.375 C-287.25407142 447.64077706 -280.47178114 434.66051805 -273 422 C-272.32012152 420.80627513 -271.64307862 419.61093122 -270.96875 418.4140625 C-267.3619505 412.01283691 -263.62678791 405.7286589 -259.6328125 399.55859375 C-258.11077775 397.17358715 -256.67363386 394.75708271 -255.25 392.3125 C-251.25265908 385.59310924 -246.7312033 379.22251706 -242.26171875 372.8125 C-241.2204749 371.31671936 -240.18727155 369.81534498 -239.15625 368.3125 C-235.13707957 362.48076252 -230.8907493 356.83110861 -226.62451172 351.17944336 C-222.46083352 345.65108351 -218.42958062 340.04032845 -214.44921875 334.37890625 C-211.43016228 330.15222719 -208.20424228 326.08678655 -205 322 C-203.83266045 320.50052359 -202.66598735 319.00052811 -201.5 317.5 C-194.5 308.5 -194.5 308.5 -192.765625 306.2734375 C-191.5425834 304.69863614 -190.3241362 303.12025993 -189.109375 301.5390625 C-188.49578125 300.74242187 -187.8821875 299.94578125 -187.25 299.125 C-186.69828125 298.40570313 -186.1465625 297.68640625 -185.578125 296.9453125 C-184.14045387 295.17313373 -182.61661102 293.60560973 -181 292 C-180.29531574 290.81343606 -179.62761124 289.60407202 -179 288.375 C-177 285 -177 285 -174 284 C-172.99083967 282.23408113 -172.99083967 282.23408113 -172 280 C-169.99279363 276.77413263 -167.87471114 273.79027768 -165.375 270.9375 C-162.44146796 267.58701925 -159.70919806 264.09483484 -157 260.5625 C-156.56800293 260.00014648 -156.13600586 259.43779297 -155.69091797 258.85839844 C-152.77771017 255.05162976 -149.92944333 251.20284888 -147.15625 247.29296875 C-146.7746875 246.86628906 -146.393125 246.43960938 -146 246 C-145.34 246 -144.68 246 -144 246 C-143.74605469 245.26910156 -143.49210938 244.53820312 -143.23046875 243.78515625 C-141.91721851 240.81262475 -140.43467571 238.89113935 -138.3125 236.4375 C-133.00766259 230.13044575 -128.11816616 223.53912782 -123.22973633 216.90600586 C-122.61122803 216.07206299 -121.99271973 215.23812012 -121.35546875 214.37890625 C-120.80528076 213.6319751 -120.25509277 212.88504395 -119.68823242 212.11547852 C-118 210 -118 210 -115.91137695 207.93725586 C-113.77855567 205.77555745 -112.50133391 203.42952883 -111.0546875 200.77734375 C-109.73902982 198.56021692 -108.10648468 196.67114281 -106.421875 194.7265625 C-102.11766187 189.50001798 -98.3391291 183.81456094 -95.078125 177.88671875 C-93.71275439 175.49732019 -92.23460304 173.19218448 -90.75 170.875 C-85.70423327 162.99709323 -80.69409409 155.08725628 -76.1171875 146.92578125 C-74.1659942 143.56236064 -72.10114974 140.26810311 -70.05810547 136.95996094 C-66.995041 131.99855978 -63.97664938 127.01366519 -61 122 C-60.43877441 121.05568115 -60.43877441 121.05568115 -59.86621094 120.09228516 C-55.25439908 112.32359974 -50.68694326 104.54990675 -46.41796875 96.5859375 C-44.8835127 93.78756311 -43.25992518 91.05329593 -41.625 88.3125 C-34.31026525 75.77755807 -28.70635277 63.05126929 -23.85449219 49.38916016 C-17.59321098 31.88261791 -10.0741428 15.64707286 0 0 Z " fill="#F05635" transform="translate(549,105)"/>
<path d="M0 0 C0.99 0 1.98 0 3 0 C3.2475 1.175625 3.495 2.35125 3.75 3.5625 C5.96904275 13.41629124 8.14852881 23.05294492 12.65625 32.14453125 C13.81633022 34.60970171 14.80245402 37.06029107 15.77734375 39.6015625 C18.11287088 45.49388236 21.02459594 51.0062919 24.0625 56.5625 C24.63250732 57.60954102 25.20251465 58.65658203 25.78979492 59.73535156 C30.42448149 68.15081412 35.42116532 76.2512925 40.79492188 84.21142578 C41.9127667 85.87052853 43.01189372 87.54220098 44.109375 89.21484375 C56.65413044 108.30796153 70.5521971 126.54969943 84.87109375 144.33984375 C87.43505041 147.54361344 89.96831644 150.77071041 92.5 154 C101.56229754 165.55044245 110.73490013 177.00542159 120.25 188.1875 C126.11904431 195.08828132 131.81776208 202.1234956 137.51464844 209.16650391 C141.74261016 214.3854376 146.00874691 219.5734816 150.26953125 224.765625 C154.65096289 230.10992662 158.99288029 235.48068778 163.2734375 240.90625 C164.92669558 242.97996277 164.92669558 242.97996277 166.6484375 244.64453125 C168 246 168 246 169.25 248.1875 C170.76934193 250.62929953 172.27409332 252.50333137 174.1875 254.625 C177.72419506 258.58431899 180.81675443 262.76967961 183.90234375 267.0859375 C186.0367368 270.05103473 188.22955815 272.96435666 190.4375 275.875 C193.65909516 280.17046022 196.83807061 284.49081019 199.9375 288.875 C200.66839844 289.90367187 201.39929688 290.93234375 202.15234375 291.9921875 C203.97283708 294.95578129 205.0496563 297.66633362 206 301 C206.66 301 207.32 301 208 301 C212.05214647 305.85596901 214.6890711 310.83863419 216 317 C216.66 317 217.32 317 218 317 C222.05357917 324.27565492 225.84304856 331.64122373 229.484375 339.12890625 C230.83745566 342.03427003 230.83745566 342.03427003 233 344 C233.58776573 345.35593481 234.12109106 346.73571833 234.625 348.125 C236.44746669 352.87300532 238.66149709 357.30720618 241 361.8125 C244.00493402 367.65748826 246.31327427 373.36705773 248.015625 379.7421875 C248.832286 382.44494654 249.78181896 384.87698912 250.88671875 387.46484375 C253.54627072 394.01275128 255.05250259 400.80081714 256.5625 407.6875 C256.71341095 408.37206268 256.8643219 409.05662537 257.01980591 409.76193237 C264.21039622 442.60211962 267.92907004 480.45325974 258.51953125 513.30078125 C257.38566895 517.27086111 256.65748119 521.11766547 256.125 525.2109375 C255.00235274 533.00275363 252.59001642 540.22904222 250 547.625 C249.76033508 548.32089233 249.52067017 549.01678467 249.27374268 549.73376465 C245.65917739 560.18516584 241.43328992 569.97633948 235.8984375 579.578125 C234.38847561 582.29978471 233.62732858 584.06175679 233 587 C232.34 587 231.68 587 231 587 C230.76539063 587.82242188 230.53078125 588.64484375 230.2890625 589.4921875 C228.74646504 593.6899224 226.67346728 597.30284908 224.375 601.125 C223.92769531 601.87491211 223.48039062 602.62482422 223.01953125 603.39746094 C216.36158363 614.47981392 208.9818552 624.84678029 201 635 C200.03092898 636.24063473 199.06218596 637.48152573 198.09375 638.72265625 C197.12534038 639.96120372 196.15659831 641.19949132 195.1875 642.4375 C194.74365967 643.00452637 194.29981934 643.57155273 193.8425293 644.15576172 C190.95748267 647.82507708 188.00250753 651.42609966 185 655 C183.125 654.875 183.125 654.875 181 654 C179.75 650.9375 179.75 650.9375 179 648 C178.34 648 177.68 648 177 648 C176.54625 646.948125 176.0925 645.89625 175.625 644.8125 C164.36887629 622.49703795 141.79021865 606.07385906 121.75 592.1875 C121.11320313 591.74374023 120.47640625 591.29998047 119.8203125 590.84277344 C115.79394727 588.08603881 111.66739114 585.65380498 107.38378906 583.31958008 C103.02494507 580.90668047 98.77474713 578.30793392 94.5 575.75 C86.81512241 571.17073545 79.0703624 566.78623384 71.10351562 562.71582031 C68.40249924 561.32768602 66.16248129 560.16248129 64 558 C62.70466436 557.45708028 61.3875428 556.96574439 60.0625 556.5 C52.2214791 553.45822465 44.92851127 549.30970679 37.52880859 545.34228516 C35.07877053 544.0418112 32.61566076 542.77157902 30.14453125 541.51171875 C9.86719671 531.13510317 -8.51367945 518.78779055 -25 503 C-25.55445801 502.47809082 -26.10891602 501.95618164 -26.68017578 501.41845703 C-36.22889916 492.40336257 -44.4580937 482.75122813 -52 472 C-52.43715332 471.38044434 -52.87430664 470.76088867 -53.32470703 470.12255859 C-65.58267266 452.36947664 -70.35695566 431.26934975 -71 410 C-71.03399902 408.94683594 -71.06799805 407.89367187 -71.10302734 406.80859375 C-71.77673245 382.76039931 -69.63809162 359.05440694 -57 338 C-55.68 338 -54.36 338 -53 338 C-52.731875 338.99257813 -52.46375 339.98515625 -52.1875 341.0078125 C-45.87031827 363.32815249 -33.01396949 379.71451306 -12.58398438 391.19384766 C3.67419469 399.84781437 20.60200857 401.4547618 38.43359375 396.8515625 C40.97579471 396.08516884 40.97579471 396.08516884 43.09765625 394.8984375 C45 394 45 394 49 394 C49 393.34 49 392.68 49 392 C49.556875 391.75507812 50.11375 391.51015625 50.6875 391.2578125 C63.54097272 384.96134782 69.90003291 371.35184406 76 359 C76.38687988 358.22462891 76.77375977 357.44925781 77.17236328 356.65039062 C80.23468548 349.88747951 80.54438247 343.85476534 80.375 336.5 C80.37371094 335.43652344 80.37242187 334.37304688 80.37109375 333.27734375 C80.25532039 322.79342298 78.8403683 314.38898302 73.5 305.3125 C73.05712646 304.53922363 72.61425293 303.76594727 72.15795898 302.96923828 C67.77519348 295.41584614 62.97022991 288.17563906 58 281 C57.13898413 279.75023334 56.27831107 278.50023043 55.41796875 277.25 C54.76405151 276.30048462 54.76405151 276.30048462 54.09692383 275.33178711 C52.23125244 272.62137272 50.36765578 269.90954846 48.50683594 267.19580078 C47.48080243 265.70063788 46.45272555 264.20687563 45.42285156 262.71435547 C30.76731834 241.41433811 17.65842865 219.07668615 6 196 C5.65155029 195.32718994 5.30310059 194.65437988 4.9440918 193.96118164 C2.78322317 189.74690761 0.99376267 185.5463855 -0.5625 181.0625 C-1.19865234 179.23332031 -1.19865234 179.23332031 -1.84765625 177.3671875 C-2.22792969 176.25601563 -2.60820313 175.14484375 -3 174 C-3.26683594 173.23945313 -3.53367187 172.47890625 -3.80859375 171.6953125 C-5.53060028 166.69468336 -7.04536781 161.62824409 -8.5625 156.5625 C-8.77261719 155.87051514 -8.98273437 155.17853027 -9.19921875 154.46557617 C-19.79765027 118.63298354 -19.58467527 69.19564882 -11 33 C-10.73203613 31.85837402 -10.46407227 30.71674805 -10.18798828 29.54052734 C-4.91346993 7.61803342 -4.91346993 7.61803342 0 0 Z " fill="#FEDD1E" transform="translate(550,227)"/>
<path d="M0 0 C0.99 0.495 0.99 0.495 2 1 C3.26277143 6.6938137 2.94533408 12.15098495 2.5625 17.9375 C2.51029297 18.81212891 2.45808594 19.68675781 2.40429688 20.58789062 C2.2757979 22.72564632 2.13877359 24.86288669 2 27 C1.67 27 1.34 27 1 27 C0.67 18.09 0.34 9.18 0 0 Z " fill="#FABF1E" transform="translate(630,543)"/>
<path d="M0 0 C3 1 3 1 4.16796875 2.77734375 C4.50441406 3.49019531 4.84085938 4.20304688 5.1875 4.9375 C5.70376953 6.00291016 5.70376953 6.00291016 6.23046875 7.08984375 C7 9 7 9 7 11 C6.34 11 5.68 11 5 11 C5 10.34 5 9.68 5 9 C4.34 9 3.68 9 3 9 C2.01 6.03 1.02 3.06 0 0 Z " fill="#FCCE1C" transform="translate(786,583)"/>
<path d="M0 0 C0 3 0 3 -1.75 4.82421875 C-2.4925 5.43910156 -3.235 6.05398438 -4 6.6875 C-4.7425 7.31011719 -5.485 7.93273437 -6.25 8.57421875 C-6.8275 9.04472656 -7.405 9.51523437 -8 10 C-8.66 9.67 -9.32 9.34 -10 9 C-6.83047153 5.73991357 -3.60062011 2.77762123 0 0 Z " fill="#FEE515" transform="translate(614,609)"/>
<path d="M0 0 C3.57983659 3.34118082 5.89716734 5.73768141 6.125 10.75 C6.08375 11.4925 6.0425 12.235 6 13 C2.84297684 9.09130466 0 5.1385061 0 0 Z " fill="#FEE715" transform="translate(624,530)"/>
<path d="M0 0 C0.33 1.32 0.66 2.64 1 4 C-1.25 6.75 -1.25 6.75 -4 9 C-4.99 9 -5.98 9 -7 9 C-4.69 6.03 -2.38 3.06 0 0 Z " fill="#FCD11A" transform="translate(618,601)"/>
<path d="M0 0 C2.35981813 0.93578995 4.69631264 1.93347808 7 3 C7 3.99 7 4.98 7 6 C3.22454612 4.90931332 0.52956528 4.0916909 -2 1 C-1.34 0.67 -0.68 0.34 0 0 Z " fill="#FCCE1B" transform="translate(605,778)"/>
<path d="M0 0 C3.99996286 1.33332095 4.83782337 3.4957827 7 7 C6.67 7.66 6.34 8.32 6 9 C0.42857143 3.85714286 0.42857143 3.85714286 0 0 Z " fill="#FCD11B" transform="translate(776,564)"/>
<path d="M0 0 C2.5 2.3125 2.5 2.3125 5 5 C5 5.99 5 6.98 5 8 C2.5 6.25 2.5 6.25 0 4 C0 2.68 0 1.36 0 0 Z " fill="#FBCC1D" transform="translate(742,507)"/>
<path d="M0 0 C0.33 0 0.66 0 1 0 C0.67 3.96 0.34 7.92 0 12 C-0.33 12 -0.66 12 -1 12 C-1.22162329 10.37675914 -1.42689803 8.751279 -1.625 7.125 C-1.74101563 6.22007812 -1.85703125 5.31515625 -1.9765625 4.3828125 C-1.98429688 3.59648438 -1.99203125 2.81015625 -2 2 C-1.34 1.34 -0.68 0.68 0 0 Z " fill="#FABB22" transform="translate(810,723)"/>
<path d="M0 0 C4.31392226 0.4793247 6.16569547 1.7457985 9 5 C4.68607774 4.5206753 2.83430453 3.2542015 0 0 Z " fill="#FEE615" transform="translate(611,782)"/>
</svg>
