<svg width="25" height="23" viewBox="0 0 25 23" fill="none" xmlns="http://www.w3.org/2000/svg">
<path d="M19.3333 0C20.6152 0 21.8446 0.509225 22.751 1.41565C23.6574 2.32208 24.1667 3.55145 24.1667 4.83333V14.5C24.1667 15.7819 23.6574 17.0113 22.751 17.9177C21.8446 18.8241 20.6152 19.3333 19.3333 19.3333H13.6252L7.87108 22.7855C7.69779 22.8895 7.50119 22.9484 7.29927 22.9568C7.09734 22.9651 6.89655 22.9227 6.71526 22.8334C6.53397 22.744 6.37799 22.6107 6.26157 22.4455C6.14516 22.2803 6.07205 22.0885 6.04892 21.8878L6.04167 21.75V19.3333H4.83333C3.59329 19.3333 2.40068 18.8567 1.50219 18.0021C0.603689 17.1474 0.0680439 15.9802 0.0060418 14.7417L0 14.5V4.83333C0 3.55145 0.509225 2.32208 1.41565 1.41565C2.32208 0.509225 3.55145 0 4.83333 0H19.3333ZM14.5 10.875H7.25C6.92953 10.875 6.62219 11.0023 6.39558 11.2289C6.16897 11.4555 6.04167 11.7629 6.04167 12.0833C6.04167 12.4038 6.16897 12.7111 6.39558 12.9378C6.62219 13.1644 6.92953 13.2917 7.25 13.2917H14.5C14.8205 13.2917 15.1278 13.1644 15.3544 12.9378C15.581 12.7111 15.7083 12.4038 15.7083 12.0833C15.7083 11.7629 15.581 11.4555 15.3544 11.2289C15.1278 11.0023 14.8205 10.875 14.5 10.875ZM16.9167 6.04167H7.25C6.92953 6.04167 6.62219 6.16897 6.39558 6.39558C6.16897 6.62219 6.04167 6.92953 6.04167 7.25C6.04167 7.57047 6.16897 7.87781 6.39558 8.10442C6.62219 8.33103 6.92953 8.45833 7.25 8.45833H16.9167C17.2371 8.45833 17.5445 8.33103 17.7711 8.10442C17.9977 7.87781 18.125 7.57047 18.125 7.25C18.125 6.92953 17.9977 6.62219 17.7711 6.39558C17.5445 6.16897 17.2371 6.04167 16.9167 6.04167Z" fill="#B2B2B2"/>
</svg>
