<svg width="64" height="95" viewBox="0 0 64 95" fill="none" xmlns="http://www.w3.org/2000/svg">
<path fill-rule="evenodd" clip-rule="evenodd" d="M28.7992 0.102534C10.4346 1.2451 0.837984 11.6449 0 30.4515H18.5256C18.7576 23.937 22.3936 19.0669 29.1637 18.3488C35.8092 17.6434 42.1138 19.2263 44.0234 23.7697C46.086 28.6776 41.4558 34.381 39.2543 36.775C35.1796 41.2143 28.5609 44.4526 25.1301 49.2422C21.7671 53.9355 21.169 60.1107 20.9102 67.6684H37.2374C37.4663 62.8362 37.7882 58.2075 39.9865 55.2043C43.5626 50.3248 48.9029 48.0381 53.3785 44.1843C57.6536 40.501 62.1513 36.0617 62.9151 29.1905C65.2081 8.62599 48.4216 -1.12209 28.7992 0.102534Z" fill="#EF4D35"/>
<path d="M29.2187 94.686C34.9118 94.686 39.527 90.1408 39.527 84.5339C39.527 78.9271 34.9118 74.3818 29.2187 74.3818C23.5256 74.3818 18.9104 78.9271 18.9104 84.5339C18.9104 90.1408 23.5256 94.686 29.2187 94.686Z" fill="#EF4D35"/>
</svg>
