<svg width="135" height="135" viewBox="0 0 135 135" fill="none" xmlns="http://www.w3.org/2000/svg">
<g clip-path="url(#clip0_184_3539)">
<path d="M95.5566 45.9355C96.7939 45.9463 97.9776 46.4425 98.8525 47.3174C99.7275 48.1923 100.224 49.376 100.234 50.6133C100.244 51.7271 99.8582 52.8031 99.1543 53.6562H99.1074L98.8428 53.9209L65.0918 87.6709C64.2069 88.5555 63.0071 89.0527 61.7559 89.0527C60.5046 89.0527 59.3048 88.5555 58.4199 87.6709L35.9199 65.1709C35.0674 64.2821 34.5957 63.0952 34.6064 61.8633C34.6172 60.626 35.1134 59.4423 35.9883 58.5674C36.8632 57.6925 38.0469 57.1963 39.2842 57.1855C40.5159 57.1748 41.7031 57.6458 42.5918 58.498V58.499L61.1543 77.0615L61.7959 77.7021L92.249 47.249C93.1378 46.3964 94.3247 45.9249 95.5566 45.9355Z" fill="#EF4D35" stroke="#FBFBFB" stroke-width="1.81208"/>
<path d="M67.5 0.90625C104.237 0.90625 134.094 30.7629 134.094 67.5C134.094 104.237 104.237 134.094 67.5 134.094C30.7629 134.094 0.90625 104.237 0.90625 67.5C0.90625 30.7629 30.7629 0.90625 67.5 0.90625ZM67.5 10.3438C35.9496 10.3438 10.3438 35.9496 10.3438 67.5C10.3438 99.0504 35.9496 124.656 67.5 124.656C99.0504 124.656 124.656 99.0504 124.656 67.5C124.656 35.9496 99.0504 10.3438 67.5 10.3438Z" fill="#EF4D35" stroke="#FBFBFB" stroke-width="1.81208"/>
</g>
<defs>
<clipPath id="clip0_184_3539">
<rect width="135" height="135" fill="white"/>
</clipPath>
</defs>
</svg>
